# xmcd
#
# Track frame offsets:
#	150
#	2909
#	17335
#	40262
#	51235
#	68702
#	86950
#	100089
#	113001
#	136432
#	158481
#	179055
#
# Disc length: 2637 seconds
#
# Revision: 0
# Processed by: cddbd v1.5.1PL0 Copyright (c) Steve Scherf et al.
# Submitted via: dBpowerAMP V4.0
#
DISCID=970a4b0c
DTITLE=Speechwriters LLC - The Bull Moose After Party
DYEAR=2004
DGENRE=New
TTITLE0=Untitled
TTITLE1=Spaghetti Streetwalker
TTITLE2=Balk
TTITLE3=Clones
TTITLE4=Anodyne
TTITLE5=Blood on the Frets
TTITLE6=Or Something
TTITLE7=Annie Dan
TTITLE8=CHBB
TTITLE9=Hostage
TTITLE10=Bobby D
TTITLE11=Spin Cycle
EXTD=
EXTT0=
EXTT1=
EXTT2=
EXTT3=
EXTT4=
EXTT5=
EXTT6=
EXTT7=
EXTT8=
EXTT9=
EXTT10=
EXTT11=
PLAYORDER=
